<?xml version="1.0" encoding="utf-8"?>
<!-- Generator: Adobe Illustrator 16.0.4, SVG Export Plug-In . SVG Version: 6.00 Build 0)  -->
<!DOCTYPE svg PUBLIC "-//W3C//DTD SVG 1.1//EN" "http://www.w3.org/Graphics/SVG/1.1/DTD/svg11.dtd">
<svg version="1.1" id="Layer_1" xmlns="http://www.w3.org/2000/svg" xmlns:xlink="http://www.w3.org/1999/xlink" x="0px" y="0px"
	 width="226.76px" height="45.098px" viewBox="0 0 226.76 45.098" enable-background="new 0 0 226.76 45.098" xml:space="preserve">
<g>
	<defs>
		<rect id="SVGID_1_" width="40.253" height="43.375"/>
	</defs>
	<clipPath id="SVGID_2_">
		<use xlink:href="#SVGID_1_"  overflow="visible"/>
	</clipPath>
	<path clip-path="url(#SVGID_2_)" fill="#FFFFFF" d="M31.369,4.43c-0.032-0.061-1.955-1.013-1.955-1.013
		c-2.445-0.514-6.474-0.289-9.283,0.745h-0.01c-2.811-1.034-6.836-1.259-9.282-0.745c0,0-1.923,0.952-1.952,1.013l-2.98,6.575
		c-0.097,0.183,0.056,0.339,0.225,0.305c4.529-0.86,9.732-1.125,13.992-1.125h0.004c4.26,0,9.463,0.265,13.991,1.125
		c0.171,0.034,0.322-0.122,0.226-0.305L31.369,4.43z M19.422,9.164c-3.228-0.128-8.801-0.128-11.594,0.872l1.985-4.969l1.353-0.724
		L9.729,8.436c2.911-0.55,6.132-0.755,9.701,0.413L19.422,9.164z M20.784,9.164V8.849c3.568-1.168,6.79-0.963,9.7-0.413L29.04,4.343
		l1.355,0.724l1.985,4.969C29.73,9.036,24.157,9.036,20.784,9.164"/>
	<path clip-path="url(#SVGID_2_)" fill="#FFFFFF" d="M38.596,1.971l-0.02-0.008l-0.127-0.029C32.451,0.65,26.287,0,20.125,0
		C13.962,0,7.789,0.652,1.781,1.938L1.722,1.95L1.666,1.968C0.705,2.206-0.001,3.107-0.001,4.149l0.002,3.265
		c0,23.547,14.57,33.1,19.036,35.466c0.357,0.19,0.727,0.287,1.095,0.287c0.37,0,0.737-0.097,1.091-0.29
		c4.455-2.36,19.029-11.916,19.029-35.463V4.149C40.252,3.132,39.566,2.238,38.596,1.971 M19.305,41.527
		C14.381,38.809,4.492,31.102,1.936,15.303l0.12-0.025c5.629-1.189,11.429-1.813,17.249-1.868V41.527z M34.883,26.383
		c-0.003,0.004-0.006,0.012-0.009,0.017c-1.046,2.166-2.23,4.088-3.476,5.772c-0.003,0.003-0.003,0.004-0.004,0.004
		c-1.134,1.533-2.311,2.881-3.482,4.044v-6.369l-3.483-2.317v11.715c-1.295,0.977-2.488,1.73-3.482,2.278V25.215l3.482,2.318v-8.107
		l3.483,2.316V13.75c1.164,0.103,2.326,0.223,3.482,0.372v9.938l3.48,2.317v-11.73c1.113,0.19,2.222,0.393,3.325,0.626l0.119,0.026
		C37.628,19.564,36.402,23.236,34.883,26.383 M20.947,17.107V13.41c1.163,0.01,2.324,0.04,3.482,0.097v5.918L20.947,17.107z
		 M38.935,7.415c0,2.145-0.13,4.168-0.363,6.084c-12.081-2.552-24.792-2.552-36.89,0.006c-0.234-1.919-0.364-3.944-0.364-6.09
		L1.316,4.148c0-0.443,0.305-0.813,0.718-0.916l0.022-0.007c5.827-1.247,11.872-1.909,18.069-1.909
		c6.192,0,12.228,0.661,18.046,1.904l0.014,0.005c0.431,0.088,0.752,0.468,0.752,0.923L38.935,7.415z"/>
	<polygon clip-path="url(#SVGID_2_)" fill="#FFFFFF" points="31.395,24.06 27.913,21.743 27.913,29.85 31.395,32.168 	"/>
	<path clip-path="url(#SVGID_2_)" fill="#FFFFFF" d="M11.855,29.169c3.515,0,6.374-2.859,6.374-6.373
		c0-3.514-2.859-6.375-6.374-6.375c-3.513,0-6.372,2.86-6.372,6.375C5.483,26.31,8.342,29.169,11.855,29.169 M13.016,28.241
		c0.491-0.53,1.077-1.306,1.52-2.313c0.614,0.132,1.14,0.296,1.571,0.459C15.323,27.313,14.244,27.98,13.016,28.241 M16.589,25.715
		c-0.471-0.191-1.061-0.391-1.769-0.55c0.188-0.593,0.317-1.247,0.354-1.969h2.232C17.339,24.117,17.05,24.972,16.589,25.715
		 M16.589,19.876c0.461,0.744,0.75,1.598,0.817,2.518h-2.232c-0.037-0.719-0.166-1.377-0.354-1.968
		C15.531,20.265,16.118,20.067,16.589,19.876 M16.107,19.205c-0.431,0.164-0.957,0.327-1.571,0.46
		c-0.443-1.01-1.029-1.783-1.52-2.316C14.244,17.611,15.323,18.279,16.107,19.205 M12.257,17.722c0.434,0.446,1.01,1.15,1.455,2.087
		c-0.449,0.065-0.934,0.107-1.455,0.122V17.722z M12.257,20.736c0.635-0.018,1.226-0.074,1.763-0.159
		c0.182,0.545,0.309,1.151,0.349,1.817h-2.112V20.736z M12.257,23.197h2.112c-0.04,0.665-0.167,1.271-0.353,1.817
		c-0.534-0.087-1.124-0.141-1.759-0.159V23.197z M12.257,25.66c0.52,0.017,1.003,0.059,1.45,0.122
		c-0.443,0.936-1.017,1.639-1.45,2.082V25.66z M7.605,26.386c0.431-0.163,0.959-0.327,1.573-0.46
		c0.444,1.01,1.031,1.786,1.523,2.316C9.469,27.982,8.39,27.314,7.605,26.386 M11.452,27.86c-0.433-0.449-1.003-1.149-1.445-2.079
		c0.446-0.062,0.928-0.104,1.445-0.121V27.86z M11.452,24.855c-0.634,0.019-1.22,0.072-1.753,0.157
		c-0.186-0.544-0.314-1.15-0.352-1.815h2.105V24.855z M11.452,22.394H9.347c0.038-0.665,0.166-1.271,0.352-1.817
		c0.533,0.085,1.119,0.141,1.753,0.159V22.394z M11.452,19.931c-0.517-0.015-0.999-0.057-1.445-0.121
		c0.442-0.929,1.012-1.632,1.445-2.079V19.931z M10.701,17.347c-0.492,0.533-1.079,1.307-1.523,2.318
		c-0.614-0.133-1.142-0.298-1.572-0.461C8.391,18.277,9.47,17.609,10.701,17.347 M7.122,19.876c0.472,0.191,1.061,0.389,1.774,0.55
		c-0.19,0.591-0.318,1.249-0.355,1.968H6.306C6.371,21.474,6.662,20.619,7.122,19.876 M6.306,23.197h2.235
		c0.037,0.72,0.165,1.376,0.353,1.968c-0.711,0.16-1.3,0.359-1.772,0.551C6.661,24.972,6.371,24.117,6.306,23.197"/>
</g>
<g>
	<defs>
		<rect id="SVGID_3_" x="46.76" y="4.681" width="180" height="24.58"/>
	</defs>
	<clipPath id="SVGID_4_">
		<use xlink:href="#SVGID_3_"  overflow="visible"/>
	</clipPath>
	<path clip-path="url(#SVGID_4_)" fill="#FFFFFF" d="M51.908,9.091c0-3.159-0.283-3.5-1.963-3.643l-0.71-0.056
		c-0.171-0.114-0.114-0.626,0.057-0.711c1.649,0.056,2.616,0.085,3.811,0.085c1.139,0,2.106-0.029,3.244-0.085
		c0.17,0.085,0.227,0.597,0.057,0.711l-0.427,0.056c-1.678,0.229-1.735,0.625-1.735,3.643v10.555c0,2.246-0.115,4.208-0.654,5.517
		c-0.94,2.277-2.959,4.098-5.606,4.098c-0.34,0-1.222-0.029-1.222-0.598c0-0.484,0.425-1.311,1.023-1.311
		c0.342,0,0.684,0.057,1.054,0.172c0.398,0.113,0.796,0.199,1.194,0.199c0.598,0,0.94-0.342,1.139-0.74
		c0.654-1.338,0.738-5.604,0.738-7.141V9.091z"/>
	<path clip-path="url(#SVGID_4_)" fill="#FFFFFF" d="M56.343,15.791c0-4.799,3.601-8.472,8.544-8.472
		c5.544,0,8.328,4.008,8.328,8.232c0,4.848-3.696,8.375-8.328,8.375C59.561,23.925,56.343,20.11,56.343,15.791 M70.815,16.294
		c0-3.959-1.751-8.232-6.335-8.232c-2.497,0-5.736,1.705-5.736,6.961c0,3.55,1.728,8.16,6.455,8.16
		C68.081,23.183,70.815,21.023,70.815,16.294"/>
	<path clip-path="url(#SVGID_4_)" fill="#FFFFFF" d="M78.668,15.791c-1.152,0-1.2,0.049-1.2,0.77v3.382c0,2.52,0.12,2.856,1.464,3
		l0.695,0.072c0.145,0.096,0.096,0.527-0.047,0.6c-1.297-0.049-2.112-0.072-3.049-0.072c-1.031,0-1.847,0.049-2.783,0.072
		c-0.144-0.072-0.191-0.457-0.049-0.6l0.408-0.072c1.344-0.24,1.393-0.48,1.393-3v-8.64c0-2.52-0.168-2.927-1.416-3.024L73.459,8.23
		c-0.144-0.096-0.095-0.528,0.049-0.6c1.176,0.023,1.992,0.072,3.023,0.072c0.937,0,1.752-0.023,2.784-0.072
		c0.144,0.072,0.193,0.504,0.048,0.6l-0.456,0.048c-1.391,0.144-1.439,0.504-1.439,3.024v2.761c0,0.743,0.048,0.768,1.2,0.768h6.864
		c1.152,0,1.201-0.025,1.201-0.768v-2.761c0-2.52-0.049-2.88-1.465-3.024L84.813,8.23c-0.145-0.096-0.098-0.528,0.047-0.6
		c1.103,0.049,1.92,0.072,2.904,0.072c0.936,0,1.752-0.023,2.832-0.072c0.142,0.072,0.191,0.504,0.049,0.6l-0.506,0.048
		c-1.39,0.144-1.439,0.504-1.439,3.024v8.64c0,2.52,0.049,2.833,1.439,3l0.576,0.072c0.144,0.096,0.096,0.527-0.049,0.6
		c-1.15-0.049-1.966-0.072-2.902-0.072c-0.984,0-1.847,0.023-2.904,0.072c-0.145-0.072-0.192-0.457-0.047-0.6l0.455-0.072
		c1.465-0.24,1.465-0.48,1.465-3v-3.382c0-0.721-0.049-0.77-1.201-0.77H78.668z"/>
	<path clip-path="url(#SVGID_4_)" fill="#FFFFFF" d="M107.109,19.462c0,0.721,0,3.576,0.07,4.199
		c-0.047,0.145-0.191,0.264-0.455,0.264c-0.287-0.406-0.984-1.246-3.072-3.623l-5.568-6.336c-0.647-0.744-2.28-2.712-2.784-3.238
		h-0.046c-0.098,0.287-0.122,0.838-0.122,1.558v5.233c0,1.127,0.024,4.248,0.432,4.966c0.145,0.266,0.625,0.408,1.225,0.457
		l0.744,0.072c0.144,0.191,0.119,0.48-0.049,0.6c-1.08-0.049-1.92-0.072-2.807-0.072c-1.009,0-1.656,0.023-2.496,0.072
		c-0.168-0.119-0.191-0.457-0.049-0.6l0.649-0.072c0.551-0.072,0.935-0.217,1.057-0.48c0.333-0.863,0.31-3.791,0.31-4.943v-6.936
		c0-0.673-0.023-1.178-0.527-1.728c-0.336-0.336-0.912-0.505-1.489-0.577l-0.408-0.047c-0.144-0.144-0.144-0.503,0.049-0.601
		c1.008,0.072,2.279,0.072,2.711,0.072c0.385,0,0.793-0.023,1.105-0.072c0.479,1.225,3.311,4.393,4.104,5.281l2.328,2.615
		c1.654,1.848,2.83,3.192,3.959,4.344h0.049c0.096-0.119,0.096-0.504,0.096-1.008v-5.136c0-1.128-0.024-4.247-0.481-4.968
		c-0.144-0.216-0.527-0.36-1.488-0.48l-0.408-0.047c-0.168-0.144-0.143-0.529,0.048-0.601c1.104,0.049,1.92,0.072,2.833,0.072
		c1.031,0,1.654-0.023,2.47-0.072c0.194,0.121,0.194,0.457,0.049,0.601l-0.336,0.047c-0.767,0.12-1.248,0.313-1.344,0.504
		c-0.408,0.864-0.359,3.84-0.359,4.944V19.462z"/>
	<path clip-path="url(#SVGID_4_)" fill="#FFFFFF" d="M113.453,23.925c-2.018,0-3.289-0.623-3.744-0.887
		c-0.289-0.529-0.602-2.232-0.649-3.359c0.12-0.17,0.481-0.217,0.577-0.072c0.359,1.222,1.343,3.576,4.126,3.576
		c2.016,0,3-1.321,3-2.76c0-1.057-0.215-2.232-1.969-3.361l-2.279-1.489c-1.2-0.791-2.592-2.16-2.592-4.127
		c0-2.28,1.777-4.127,4.896-4.127c0.744,0,1.607,0.144,2.232,0.311c0.311,0.098,0.646,0.145,0.838,0.145
		c0.217,0.575,0.434,1.92,0.434,2.927c-0.096,0.145-0.48,0.216-0.601,0.073c-0.312-1.153-0.96-2.713-3.265-2.713
		c-2.352,0-2.856,1.56-2.856,2.666c0,1.39,1.153,2.398,2.042,2.951l1.92,1.199c1.512,0.936,3,2.328,3,4.608
		C118.564,22.126,116.572,23.925,113.453,23.925"/>
	<path clip-path="url(#SVGID_4_)" fill="#FFFFFF" d="M132.809,14.355c-1.365,0-1.422,0.055-1.422,0.908v4.012
		c0,2.986,0.141,3.385,1.733,3.557l0.827,0.087c0.17,0.112,0.113,0.625-0.059,0.708c-1.535-0.057-2.502-0.083-3.611-0.083
		c-1.225,0-2.191,0.056-3.301,0.083c-0.172-0.083-0.229-0.539-0.057-0.708l0.482-0.087c1.593-0.285,1.65-0.57,1.65-3.557V9.033
		c0-2.987-0.199-3.471-1.678-3.584l-0.74-0.057c-0.17-0.113-0.113-0.626,0.057-0.711c1.395,0.028,2.361,0.085,3.586,0.085
		c1.109,0,2.076-0.028,3.299-0.085c0.172,0.085,0.229,0.598,0.057,0.711l-0.541,0.057c-1.648,0.172-1.705,0.597-1.705,3.584v3.272
		c0,0.882,0.057,0.909,1.422,0.909h8.137c1.365,0,1.422-0.027,1.422-0.909V9.033c0-2.987-0.057-3.412-1.736-3.584l-0.541-0.057
		c-0.17-0.113-0.113-0.626,0.059-0.711c1.306,0.057,2.275,0.085,3.441,0.085c1.109,0,2.078-0.028,3.357-0.085
		c0.17,0.085,0.229,0.598,0.057,0.711l-0.598,0.057c-1.648,0.172-1.707,0.597-1.707,3.584v10.242c0,2.986,0.059,3.357,1.707,3.557
		l0.684,0.087c0.17,0.112,0.113,0.625-0.059,0.708c-1.363-0.057-2.332-0.083-3.441-0.083c-1.166,0-2.189,0.026-3.441,0.083
		c-0.172-0.083-0.229-0.539-0.059-0.708l0.541-0.087c1.736-0.285,1.736-0.57,1.736-3.557v-4.012c0-0.853-0.057-0.908-1.422-0.908
		H132.809z"/>
	<path clip-path="url(#SVGID_4_)" fill="#FFFFFF" d="M146.91,15.791c0-4.799,3.602-8.472,8.543-8.472
		c5.545,0,8.328,4.008,8.328,8.232c0,4.848-3.695,8.375-8.328,8.375C150.127,23.925,146.91,20.11,146.91,15.791 M161.381,16.294
		c0-3.959-1.75-8.232-6.336-8.232c-2.494,0-5.734,1.705-5.734,6.961c0,3.55,1.729,8.16,6.455,8.16
		C158.646,23.183,161.381,21.023,161.381,16.294"/>
	<path clip-path="url(#SVGID_4_)" fill="#FFFFFF" d="M168.125,19.943c0,2.52,0.049,2.832,1.584,3l0.648,0.072
		c0.145,0.119,0.098,0.527-0.049,0.6c-1.367-0.049-2.158-0.072-3.119-0.072c-1.008,0-1.871,0.023-2.928,0.072
		c-0.145-0.072-0.191-0.457-0.047-0.6l0.504-0.072c1.391-0.191,1.439-0.48,1.439-3v-8.855c0-2.041-0.049-2.449-1.129-2.569
		l-0.863-0.097c-0.168-0.143-0.146-0.503,0.049-0.599c1.271-0.169,2.76-0.193,4.75-0.193c1.992,0,3.48,0.264,4.609,0.961
		c1.104,0.696,1.92,1.944,1.92,3.599c0,2.208-1.367,3.314-2.4,3.817c-1.057,0.504-2.328,0.719-3.312,0.719
		c-0.168-0.07-0.168-0.431-0.023-0.478c2.592-0.481,3.527-1.946,3.527-4.033c0-2.329-1.367-3.839-3.863-3.839
		c-1.271,0-1.297,0.094-1.297,0.864V19.943z"/>
	<path clip-path="url(#SVGID_4_)" fill="#FFFFFF" d="M178.111,11.302c0-2.52-0.049-2.904-1.439-3.023l-0.602-0.048
		c-0.143-0.097-0.094-0.529,0.049-0.601c1.176,0.049,1.943,0.072,3.023,0.072c0.936,0,1.752-0.023,2.785-0.072
		c0.143,0.072,0.191,0.504,0.047,0.601l-0.455,0.048c-1.393,0.143-1.441,0.503-1.441,3.023v2.762c0,0.455,0.049,0.91,0.314,0.91
		c0.215,0,0.502-0.143,0.67-0.264c0.336-0.287,0.961-0.912,1.225-1.152l2.592-2.567c0.455-0.433,1.633-1.657,1.871-1.992
		c0.121-0.169,0.17-0.289,0.17-0.385c0-0.095-0.096-0.167-0.408-0.239l-0.648-0.144c-0.168-0.169-0.145-0.48,0.047-0.601
		c0.84,0.049,1.801,0.072,2.641,0.072s1.656-0.023,2.375-0.072c0.17,0.121,0.193,0.457,0.049,0.601
		c-0.623,0.048-1.559,0.288-2.23,0.672c-0.672,0.383-2.018,1.511-3.361,2.784l-2.16,2.039c-0.336,0.338-0.553,0.553-0.553,0.744
		c0,0.17,0.145,0.361,0.457,0.744c2.279,2.615,4.127,4.776,6,6.744c0.576,0.576,1.014,0.889,1.828,0.984l0.463,0.072
		c0.17,0.119,0.121,0.527-0.049,0.6c-0.623-0.049-1.281-0.072-2.41-0.072c-0.982,0-1.824,0.023-2.928,0.072
		c-0.168-0.049-0.24-0.458-0.096-0.6l0.551-0.098c0.338-0.047,0.576-0.119,0.576-0.238c0-0.145-0.168-0.336-0.336-0.553
		c-0.457-0.576-1.08-1.224-1.992-2.256l-1.92-2.16c-1.367-1.535-1.752-2.015-2.328-2.015c-0.359,0-0.408,0.312-0.408,1.152v3.096
		c0,2.519,0.049,2.855,1.393,3l0.648,0.072c0.143,0.096,0.097,0.527-0.049,0.6c-1.176-0.049-1.992-0.072-2.928-0.072
		c-0.984,0-1.799,0.023-2.783,0.072c-0.144-0.072-0.193-0.432-0.049-0.6l0.48-0.072c1.271-0.191,1.32-0.48,1.32-3V11.302z"/>
	<path clip-path="url(#SVGID_4_)" fill="#FFFFFF" d="M194.584,11.351c0-2.544-0.047-2.953-1.465-3.072l-0.599-0.048
		c-0.144-0.097-0.097-0.528,0.048-0.601c1.199,0.049,2.016,0.073,3.023,0.073c0.961,0,1.777-0.024,2.977-0.073
		c0.145,0.073,0.191,0.504,0.049,0.601l-0.602,0.048c-1.416,0.119-1.463,0.528-1.463,3.072v8.543c0,2.545,0.047,2.881,1.463,3.049
		l0.602,0.072c0.143,0.096,0.096,0.526-0.049,0.6c-1.199-0.049-2.016-0.073-2.977-0.073c-1.008,0-1.732,0.024-2.932,0.073
		c-0.145-0.073-0.191-0.457-0.047-0.6l0.506-0.072c1.418-0.168,1.465-0.504,1.465-3.049V11.351z"/>
	<path clip-path="url(#SVGID_4_)" fill="#FFFFFF" d="M215.344,19.462c0,0.721,0,3.576,0.074,4.199
		c-0.049,0.145-0.193,0.264-0.457,0.264c-0.287-0.406-0.984-1.246-3.072-3.623l-5.568-6.336c-0.646-0.744-2.279-2.712-2.783-3.238
		h-0.047c-0.098,0.287-0.121,0.838-0.121,1.558v5.233c0,1.127,0.023,4.248,0.432,4.966c0.145,0.266,0.625,0.408,1.225,0.457
		l0.744,0.072c0.143,0.191,0.119,0.48-0.049,0.6c-1.08-0.049-1.92-0.072-2.807-0.072c-1.008,0-1.656,0.023-2.496,0.072
		c-0.168-0.119-0.193-0.457-0.049-0.6l0.648-0.072c0.551-0.072,0.936-0.217,1.057-0.48c0.336-0.863,0.311-3.791,0.311-4.943v-6.936
		c0-0.673-0.023-1.178-0.527-1.728c-0.336-0.336-0.912-0.505-1.488-0.577l-0.408-0.047c-0.145-0.144-0.145-0.503,0.049-0.601
		c1.008,0.072,2.279,0.072,2.711,0.072c0.385,0,0.793-0.023,1.105-0.072c0.48,1.225,3.311,4.393,4.102,5.281l2.33,2.615
		c1.656,1.848,2.83,3.192,3.959,4.344h0.049c0.096-0.119,0.096-0.504,0.096-1.008v-5.136c0-1.128-0.023-4.247-0.48-4.968
		c-0.145-0.216-0.527-0.36-1.486-0.48l-0.408-0.047c-0.17-0.144-0.145-0.529,0.047-0.601c1.104,0.049,1.92,0.072,2.832,0.072
		c1.033,0,1.656-0.023,2.471-0.072c0.193,0.121,0.193,0.457,0.049,0.601l-0.336,0.047c-0.768,0.12-1.248,0.313-1.344,0.504
		c-0.408,0.864-0.361,3.84-0.361,4.944V19.462z"/>
	<path clip-path="url(#SVGID_4_)" fill="#FFFFFF" d="M221.648,23.925c-2.018,0-3.289-0.623-3.746-0.887
		c-0.287-0.529-0.6-2.232-0.648-3.359c0.121-0.17,0.482-0.217,0.576-0.072c0.361,1.222,1.346,3.576,4.129,3.576
		c2.016,0,3-1.321,3-2.76c0-1.057-0.217-2.232-1.969-3.361l-2.277-1.489c-1.201-0.791-2.594-2.16-2.594-4.127
		c0-2.28,1.775-4.127,4.896-4.127c0.744,0,1.607,0.144,2.232,0.311c0.312,0.098,0.646,0.145,0.838,0.145
		c0.217,0.575,0.434,1.92,0.434,2.927c-0.098,0.145-0.48,0.216-0.602,0.073c-0.311-1.153-0.959-2.713-3.262-2.713
		c-2.354,0-2.857,1.56-2.857,2.666c0,1.39,1.152,2.398,2.039,2.951l1.922,1.199c1.512,0.936,3,2.328,3,4.608
		C226.76,22.126,224.768,23.925,221.648,23.925"/>
</g>
<g>
	<defs>
		<rect id="SVGID_5_" x="46.76" y="29.261" width="180" height="15.837"/>
	</defs>
	<clipPath id="SVGID_6_">
		<use xlink:href="#SVGID_5_"  overflow="visible"/>
	</clipPath>
	<path clip-path="url(#SVGID_6_)" fill="#FFFFFF" d="M71.972,39.61c-1.042,0-1.7-0.249-1.935-0.354
		c-0.149-0.211-0.31-0.892-0.336-1.342c0.063-0.067,0.249-0.087,0.298-0.028c0.187,0.488,0.695,1.427,2.134,1.427
		c1.042,0,1.551-0.526,1.551-1.102c0-0.421-0.111-0.892-1.018-1.342l-1.177-0.594c-0.621-0.316-1.34-0.862-1.34-1.648
		c0-0.91,0.918-1.647,2.53-1.647c0.385,0,0.831,0.057,1.153,0.124c0.162,0.039,0.336,0.058,0.435,0.058
		c0.112,0.229,0.224,0.767,0.224,1.169c-0.05,0.058-0.248,0.086-0.311,0.029c-0.161-0.461-0.496-1.084-1.687-1.084
		c-1.215,0-1.476,0.623-1.476,1.064c0,0.555,0.595,0.958,1.054,1.179l0.993,0.479c0.781,0.374,1.551,0.93,1.551,1.84
		C74.615,38.891,73.583,39.61,71.972,39.61"/>
	<path clip-path="url(#SVGID_6_)" fill="#FFFFFF" d="M79.102,36.361c-0.596,0-0.62,0.02-0.62,0.307v1.352
		c0,1.006,0.061,1.14,0.757,1.197l0.359,0.029c0.074,0.038,0.05,0.211-0.024,0.239c-0.67-0.018-1.092-0.028-1.576-0.028
		c-0.533,0-0.955,0.019-1.439,0.028c-0.074-0.028-0.1-0.182-0.024-0.239l0.21-0.029c0.695-0.096,0.72-0.191,0.72-1.197v-3.45
		c0-1.006-0.088-1.169-0.732-1.207l-0.322-0.02c-0.075-0.038-0.05-0.211,0.024-0.239c0.608,0.01,1.03,0.028,1.563,0.028
		c0.484,0,0.906-0.01,1.44-0.028c0.074,0.028,0.099,0.201,0.023,0.239l-0.234,0.02c-0.721,0.058-0.745,0.201-0.745,1.207v1.103
		c0,0.297,0.024,0.307,0.62,0.307h3.549c0.595,0,0.619-0.01,0.619-0.307v-1.103c0-1.006-0.024-1.149-0.756-1.207l-0.236-0.02
		c-0.074-0.038-0.049-0.211,0.025-0.239c0.57,0.019,0.992,0.028,1.501,0.028c0.484,0,0.905-0.01,1.464-0.028
		c0.074,0.028,0.1,0.201,0.024,0.239l-0.26,0.02c-0.719,0.058-0.744,0.201-0.744,1.207v3.45c0,1.006,0.025,1.13,0.744,1.197
		l0.299,0.029c0.074,0.038,0.048,0.211-0.026,0.239c-0.596-0.018-1.017-0.028-1.501-0.028c-0.509,0-0.956,0.011-1.501,0.028
		c-0.074-0.028-0.099-0.182-0.025-0.239l0.236-0.029c0.756-0.096,0.756-0.191,0.756-1.197v-1.352c0-0.287-0.024-0.307-0.619-0.307
		H79.102z"/>
	<path clip-path="url(#SVGID_6_)" fill="#FFFFFF" d="M88.079,34.569c0-0.996-0.024-1.14-0.757-1.207l-0.198-0.02
		c-0.075-0.038-0.05-0.211,0.024-0.239c0.534,0.019,0.955,0.028,1.464,0.028h2.333c0.793,0,1.526,0,1.674-0.028
		c0.074,0.162,0.149,0.853,0.199,1.274c-0.05,0.058-0.248,0.077-0.31,0.02c-0.186-0.45-0.298-0.786-0.944-0.91
		c-0.259-0.049-0.656-0.058-1.203-0.058h-0.892c-0.373,0-0.373,0.019-0.373,0.383v1.916c0,0.269,0.038,0.269,0.41,0.269h0.719
		c0.521,0,0.906-0.019,1.054-0.057c0.15-0.039,0.237-0.097,0.299-0.336l0.099-0.393c0.061-0.058,0.272-0.058,0.322,0.009
		c0,0.23-0.05,0.604-0.05,0.968c0,0.346,0.05,0.71,0.05,0.921c-0.05,0.067-0.261,0.067-0.322,0.009l-0.113-0.373
		c-0.048-0.173-0.135-0.316-0.383-0.364c-0.174-0.039-0.472-0.048-0.956-0.048h-0.719c-0.372,0-0.41,0.009-0.41,0.259v1.351
		c0,0.508,0.038,0.834,0.236,0.997c0.148,0.114,0.409,0.22,1.501,0.22c0.955,0,1.315-0.038,1.588-0.143
		c0.223-0.096,0.557-0.432,0.881-0.931c0.087-0.047,0.26-0.019,0.309,0.067c-0.086,0.336-0.396,1.073-0.557,1.332
		c-1.117-0.019-2.221-0.028-3.326-0.028h-1.116c-0.533,0-0.955,0.01-1.686,0.028c-0.075-0.028-0.1-0.182-0.026-0.239l0.41-0.029
		c0.707-0.048,0.769-0.191,0.769-1.197V34.569z"/>
	<path clip-path="url(#SVGID_6_)" fill="#FFFFFF" d="M95.94,34.579c0-0.91-0.037-1.073-0.545-1.121l-0.397-0.038
		c-0.088-0.048-0.088-0.201,0.012-0.24c0.695-0.048,1.551-0.076,2.766-0.076c0.769,0,1.501,0.048,2.072,0.287
		c0.595,0.24,1.03,0.671,1.03,1.342c0,0.91-0.931,1.409-1.551,1.601c-0.061,0.058,0,0.153,0.062,0.23
		c0.992,1.235,1.65,2.003,2.494,2.549c0.211,0.144,0.521,0.249,0.855,0.268c0.063,0.02,0.074,0.095,0.013,0.134
		c-0.112,0.029-0.31,0.049-0.546,0.049c-1.055,0-1.687-0.24-2.568-1.208c-0.323-0.354-0.83-1.016-1.215-1.446
		c-0.187-0.212-0.385-0.308-0.881-0.308c-0.559,0-0.584,0.01-0.584,0.212v1.207c0,1.005,0.025,1.121,0.745,1.196l0.261,0.03
		c0.074,0.048,0.049,0.211-0.026,0.239c-0.558-0.019-0.98-0.028-1.476-0.028c-0.521,0-0.967,0.01-1.551,0.028
		c-0.074-0.028-0.099-0.173-0.024-0.239l0.31-0.03c0.72-0.066,0.744-0.191,0.744-1.196V34.579z M96.957,35.95
		c0,0.172,0,0.277,0.038,0.315c0.037,0.029,0.224,0.048,0.857,0.048c0.445,0,0.917-0.038,1.277-0.249
		c0.334-0.201,0.62-0.536,0.62-1.188c0-0.757-0.608-1.476-1.985-1.476c-0.769,0-0.807,0.038-0.807,0.307V35.95z"/>
	<path clip-path="url(#SVGID_6_)" fill="#FFFFFF" d="M104.559,34.588c0-1.016-0.025-1.179-0.757-1.227l-0.309-0.02
		c-0.075-0.038-0.051-0.211,0.024-0.239c0.62,0.019,1.042,0.028,1.563,0.028c0.497,0,0.918-0.01,1.538-0.028
		c0.075,0.028,0.099,0.201,0.025,0.239l-0.311,0.02c-0.731,0.048-0.755,0.211-0.755,1.227V38c0,1.017,0.024,1.149,0.755,1.217
		l0.311,0.029c0.074,0.038,0.05,0.211-0.025,0.239c-0.62-0.019-1.041-0.028-1.538-0.028c-0.521,0-0.943,0.01-1.563,0.028
		c-0.075-0.028-0.099-0.182-0.024-0.239l0.309-0.029c0.732-0.067,0.757-0.2,0.757-1.217V34.588z"/>
	<path clip-path="url(#SVGID_6_)" fill="#FFFFFF" d="M109.369,34.377c0-0.671-0.061-0.872-0.582-0.93l-0.273-0.028
		c-0.1-0.048-0.111-0.201,0.012-0.24c1.054-0.048,2.06-0.076,3.114-0.076c1.042,0,1.923,0.058,2.729,0.287
		c1.675,0.47,2.518,1.562,2.518,2.827c0,1.218-0.756,2.262-2.17,2.855c-0.807,0.335-1.824,0.461-2.779,0.461
		c-0.794,0-1.588-0.078-2.022-0.078c-0.521,0-0.968,0.011-1.55,0.029c-0.075-0.029-0.1-0.182-0.026-0.239l0.285-0.029
		c0.72-0.076,0.744-0.191,0.744-1.197V34.377z M110.387,37.798c0,0.509,0.037,0.814,0.248,1.045
		c0.273,0.297,0.744,0.393,1.525,0.393c2.408,0,3.487-1.217,3.487-2.999c0-1.055-0.656-2.837-3.907-2.837
		c-0.732,0-1.129,0.076-1.229,0.133c-0.099,0.06-0.124,0.299-0.124,0.729V37.798z"/>
	<path clip-path="url(#SVGID_6_)" fill="#FFFFFF" d="M122.49,37.233c-0.087-0.211-0.137-0.239-0.509-0.239h-1.874
		c-0.31,0-0.384,0.028-0.471,0.229l-0.434,1.008c-0.187,0.431-0.274,0.689-0.274,0.794c0,0.115,0.063,0.173,0.36,0.191l0.41,0.029
		c0.086,0.048,0.086,0.201-0.025,0.24c-0.322-0.02-0.707-0.02-1.29-0.029c-0.409,0-0.856,0.019-1.19,0.029
		c-0.075-0.039-0.1-0.192-0.025-0.24l0.409-0.029c0.298-0.019,0.571-0.124,0.745-0.469c0.223-0.44,0.57-1.063,1.092-2.138
		l1.265-2.587c0.174-0.345,0.248-0.526,0.21-0.681c0.299-0.067,0.51-0.239,0.646-0.363c0.074,0,0.16,0.019,0.185,0.086
		c0.162,0.422,0.36,0.862,0.547,1.283l1.7,3.853c0.359,0.824,0.521,0.968,1.054,1.016l0.335,0.029c0.087,0.048,0.062,0.201,0,0.24
		c-0.508-0.02-0.943-0.029-1.501-0.029c-0.595,0-1.067,0.019-1.427,0.029c-0.1-0.039-0.111-0.192-0.024-0.24l0.358-0.029
		c0.262-0.019,0.436-0.076,0.436-0.172c0-0.104-0.062-0.278-0.162-0.508L122.49,37.233z M120.033,36.38
		c-0.099,0.22-0.086,0.229,0.261,0.229h1.526c0.358,0,0.385-0.038,0.272-0.297l-0.67-1.562c-0.099-0.23-0.211-0.489-0.286-0.604
		h-0.023c-0.037,0.049-0.162,0.278-0.298,0.566L120.033,36.38z"/>
	<path clip-path="url(#SVGID_6_)" fill="#FFFFFF" d="M134.049,37.827c0,0.288,0,1.429,0.037,1.678
		c-0.025,0.058-0.099,0.105-0.236,0.105c-0.148-0.163-0.509-0.498-1.588-1.447l-2.878-2.53c-0.335-0.296-1.179-1.082-1.438-1.293
		h-0.025c-0.05,0.115-0.062,0.335-0.062,0.622v2.09c0,0.45,0.013,1.696,0.224,1.983c0.075,0.105,0.323,0.163,0.633,0.182
		l0.384,0.029c0.075,0.076,0.062,0.191-0.023,0.238c-0.559-0.018-0.993-0.027-1.452-0.027c-0.521,0-0.856,0.01-1.29,0.027
		c-0.087-0.047-0.1-0.181-0.025-0.238l0.336-0.029c0.285-0.028,0.483-0.087,0.545-0.191c0.175-0.346,0.162-1.514,0.162-1.974v-2.77
		c0-0.269-0.013-0.47-0.273-0.689c-0.173-0.135-0.471-0.202-0.77-0.23l-0.211-0.02c-0.074-0.058-0.074-0.2,0.025-0.239
		c0.521,0.028,1.179,0.028,1.402,0.028c0.197,0,0.408-0.01,0.57-0.028c0.248,0.489,1.712,1.754,2.121,2.108l1.203,1.044
		c0.855,0.738,1.464,1.275,2.047,1.734h0.025c0.049-0.048,0.049-0.2,0.049-0.402v-2.051c0-0.45-0.011-1.695-0.248-1.983
		c-0.074-0.086-0.272-0.144-0.769-0.191l-0.211-0.02c-0.087-0.058-0.074-0.211,0.024-0.239c0.57,0.019,0.992,0.028,1.464,0.028
		c0.534,0,0.856-0.01,1.278-0.028c0.1,0.048,0.1,0.182,0.024,0.239l-0.174,0.02c-0.397,0.048-0.646,0.125-0.694,0.201
		c-0.211,0.345-0.186,1.533-0.186,1.974V37.827z"/>
	<path clip-path="url(#SVGID_6_)" fill="#FFFFFF" d="M141.41,34.569c0-1.006-0.024-1.159-0.806-1.207l-0.311-0.02
		c-0.074-0.038-0.05-0.211,0.024-0.239c0.695,0.019,1.117,0.028,1.613,0.028c0.484,0,0.906-0.01,1.525-0.028
		c0.074,0.028,0.1,0.201,0.025,0.239l-0.298,0.02c-0.731,0.048-0.757,0.201-0.757,1.207v3.335c0,0.604,0.037,0.854,0.261,1.035
		c0.136,0.105,0.372,0.22,1.353,0.22c1.055,0,1.314-0.038,1.514-0.124c0.248-0.114,0.57-0.46,0.818-0.949
		c0.074-0.047,0.311-0.009,0.311,0.059c0,0.104-0.348,1.082-0.521,1.341c-0.633-0.019-1.812-0.028-3.09-0.028h-1.141
		c-0.521,0-0.918,0.01-1.613,0.028c-0.074-0.028-0.099-0.182-0.024-0.239l0.372-0.029c0.72-0.058,0.744-0.191,0.744-1.197V34.569z"
		/>
	<path clip-path="url(#SVGID_6_)" fill="#FFFFFF" d="M148.888,34.588c0-1.016-0.024-1.179-0.757-1.227l-0.311-0.02
		c-0.074-0.038-0.049-0.211,0.025-0.239c0.62,0.019,1.042,0.028,1.562,0.028c0.496,0,0.917-0.01,1.539-0.028
		c0.074,0.028,0.1,0.201,0.024,0.239l-0.31,0.02c-0.732,0.048-0.758,0.211-0.758,1.227V38c0,1.017,0.025,1.149,0.758,1.217
		l0.31,0.029c0.075,0.038,0.05,0.211-0.024,0.239c-0.622-0.019-1.043-0.028-1.539-0.028c-0.521,0-0.942,0.01-1.562,0.028
		c-0.074-0.028-0.1-0.182-0.025-0.239l0.311-0.029c0.732-0.067,0.757-0.2,0.757-1.217V34.588z"/>
	<path clip-path="url(#SVGID_6_)" fill="#FFFFFF" d="M153.699,34.377c0-0.709-0.051-0.891-0.608-0.93l-0.396-0.028
		c-0.1-0.058-0.087-0.201,0.012-0.24c0.67-0.048,1.514-0.076,2.667-0.076c0.781,0,1.526,0.048,2.084,0.269
		c0.534,0.201,0.943,0.584,0.943,1.197c0,0.69-0.521,1.045-1.266,1.313c0,0.096,0.1,0.124,0.236,0.144
		c0.67,0.095,1.662,0.574,1.662,1.601c0,1.111-1.066,1.858-3.3,1.858c-0.36,0-0.968-0.028-1.489-0.028
		c-0.545,0-0.966,0.019-1.425,0.028c-0.075-0.028-0.101-0.182-0.026-0.239l0.224-0.029c0.657-0.086,0.683-0.191,0.683-1.197V34.377z
		 M154.716,35.652c0,0.269,0.013,0.288,0.646,0.269c1.265-0.038,1.946-0.325,1.946-1.227c0-0.938-0.905-1.294-1.848-1.294
		c-0.273,0-0.459,0.02-0.571,0.058c-0.124,0.029-0.174,0.076-0.174,0.249V35.652z M154.716,37.875c0,0.345,0.024,0.833,0.261,1.045
		c0.236,0.22,0.607,0.268,0.98,0.268c1.104,0,1.947-0.384,1.947-1.342c0-0.757-0.496-1.638-2.469-1.638
		c-0.67,0-0.72,0.057-0.72,0.248V37.875z"/>
	<path clip-path="url(#SVGID_6_)" fill="#FFFFFF" d="M161.809,34.579c0-0.91-0.037-1.073-0.547-1.121l-0.396-0.038
		c-0.087-0.048-0.087-0.201,0.013-0.24c0.694-0.048,1.55-0.076,2.767-0.076c0.769,0,1.5,0.048,2.071,0.287
		c0.595,0.24,1.03,0.671,1.03,1.342c0,0.91-0.932,1.409-1.551,1.601c-0.062,0.058,0,0.153,0.062,0.23
		c0.992,1.235,1.649,2.003,2.493,2.549c0.211,0.144,0.521,0.249,0.856,0.268c0.062,0.02,0.073,0.095,0.013,0.134
		c-0.112,0.029-0.311,0.049-0.547,0.049c-1.054,0-1.687-0.24-2.567-1.208c-0.322-0.354-0.831-1.016-1.216-1.446
		c-0.186-0.212-0.385-0.308-0.881-0.308c-0.559,0-0.583,0.01-0.583,0.212v1.207c0,1.005,0.024,1.121,0.745,1.196l0.26,0.03
		c0.074,0.048,0.05,0.211-0.026,0.239c-0.557-0.019-0.979-0.028-1.475-0.028c-0.521,0-0.968,0.01-1.551,0.028
		c-0.074-0.028-0.1-0.173-0.024-0.239l0.311-0.03c0.719-0.066,0.744-0.191,0.744-1.196V34.579z M162.825,35.95
		c0,0.172,0,0.277,0.038,0.315c0.037,0.029,0.223,0.048,0.855,0.048c0.446,0,0.918-0.038,1.277-0.249
		c0.335-0.201,0.621-0.536,0.621-1.188c0-0.757-0.608-1.476-1.985-1.476c-0.769,0-0.807,0.038-0.807,0.307V35.95z"/>
	<path clip-path="url(#SVGID_6_)" fill="#FFFFFF" d="M173.887,37.233c-0.086-0.211-0.136-0.239-0.508-0.239h-1.873
		c-0.311,0-0.385,0.028-0.471,0.229l-0.436,1.008c-0.186,0.431-0.271,0.689-0.271,0.794c0,0.115,0.061,0.173,0.359,0.191
		l0.408,0.029c0.088,0.048,0.088,0.201-0.024,0.24c-0.322-0.02-0.707-0.02-1.29-0.029c-0.41,0-0.855,0.019-1.191,0.029
		c-0.074-0.039-0.099-0.192-0.024-0.24l0.409-0.029c0.298-0.019,0.57-0.124,0.744-0.469c0.224-0.44,0.571-1.063,1.092-2.138
		l1.266-2.587c0.174-0.345,0.248-0.526,0.211-0.681c0.298-0.067,0.509-0.239,0.645-0.363c0.075,0,0.162,0.019,0.188,0.086
		c0.16,0.422,0.359,0.862,0.545,1.283l1.699,3.853c0.359,0.824,0.521,0.968,1.055,1.016l0.335,0.029c0.087,0.048,0.062,0.201,0,0.24
		c-0.509-0.02-0.942-0.029-1.501-0.029c-0.596,0-1.066,0.019-1.427,0.029c-0.099-0.039-0.111-0.192-0.024-0.24l0.36-0.029
		c0.26-0.019,0.434-0.076,0.434-0.172c0-0.104-0.062-0.278-0.161-0.508L173.887,37.233z M171.432,36.38
		c-0.1,0.22-0.088,0.229,0.26,0.229h1.525c0.361,0,0.385-0.038,0.273-0.297l-0.67-1.562c-0.1-0.23-0.211-0.489-0.284-0.604h-0.026
		c-0.037,0.049-0.16,0.278-0.297,0.566L171.432,36.38z"/>
	<path clip-path="url(#SVGID_6_)" fill="#FFFFFF" d="M178.759,34.579c0-0.91-0.037-1.073-0.546-1.121l-0.396-0.038
		c-0.088-0.048-0.088-0.201,0.012-0.24c0.695-0.048,1.551-0.076,2.767-0.076c0.769,0,1.501,0.048,2.071,0.287
		c0.596,0.24,1.03,0.671,1.03,1.342c0,0.91-0.931,1.409-1.551,1.601c-0.062,0.058,0,0.153,0.062,0.23
		c0.992,1.235,1.65,2.003,2.494,2.549c0.211,0.144,0.521,0.249,0.855,0.268c0.062,0.02,0.073,0.095,0.013,0.134
		c-0.112,0.029-0.31,0.049-0.546,0.049c-1.055,0-1.688-0.24-2.568-1.208c-0.322-0.354-0.83-1.016-1.215-1.446
		c-0.187-0.212-0.385-0.308-0.881-0.308c-0.559,0-0.584,0.01-0.584,0.212v1.207c0,1.005,0.025,1.121,0.745,1.196l0.261,0.03
		c0.074,0.048,0.049,0.211-0.026,0.239c-0.558-0.019-0.979-0.028-1.476-0.028c-0.521,0-0.967,0.01-1.551,0.028
		c-0.074-0.028-0.1-0.173-0.024-0.239l0.311-0.03c0.72-0.066,0.744-0.191,0.744-1.196V34.579z M179.775,35.95
		c0,0.172,0,0.277,0.038,0.315c0.037,0.029,0.224,0.048,0.856,0.048c0.445,0,0.917-0.038,1.277-0.249
		c0.334-0.201,0.62-0.536,0.62-1.188c0-0.757-0.608-1.476-1.985-1.476c-0.769,0-0.807,0.038-0.807,0.307V35.95z"/>
	<path clip-path="url(#SVGID_6_)" fill="#FFFFFF" d="M187.365,34.588c0-1.016-0.025-1.179-0.758-1.227l-0.31-0.02
		c-0.074-0.038-0.05-0.211,0.024-0.239c0.621,0.019,1.043,0.028,1.564,0.028c0.495,0,0.917-0.01,1.537-0.028
		c0.074,0.028,0.1,0.201,0.025,0.239l-0.311,0.02c-0.732,0.048-0.757,0.211-0.757,1.227V38c0,1.017,0.024,1.149,0.757,1.217
		l0.311,0.029c0.074,0.038,0.049,0.211-0.025,0.239c-0.62-0.019-1.042-0.028-1.537-0.028c-0.521,0-0.943,0.01-1.564,0.028
		c-0.074-0.028-0.099-0.182-0.024-0.239l0.31-0.029c0.732-0.067,0.758-0.2,0.758-1.217V34.588z"/>
	<path clip-path="url(#SVGID_6_)" fill="#FFFFFF" d="M192.176,34.569c0-0.996-0.025-1.14-0.758-1.207l-0.197-0.02
		c-0.075-0.038-0.051-0.211,0.024-0.239c0.533,0.019,0.955,0.028,1.464,0.028h2.332c0.794,0,1.525,0,1.675-0.028
		c0.074,0.162,0.149,0.853,0.198,1.274c-0.049,0.058-0.248,0.077-0.311,0.02c-0.186-0.45-0.297-0.786-0.942-0.91
		c-0.261-0.049-0.657-0.058-1.203-0.058h-0.894c-0.372,0-0.372,0.019-0.372,0.383v1.916c0,0.269,0.038,0.269,0.409,0.269h0.72
		c0.521,0,0.905-0.019,1.055-0.057c0.149-0.039,0.235-0.097,0.298-0.336l0.1-0.393c0.062-0.058,0.272-0.058,0.322,0.009
		c0,0.23-0.05,0.604-0.05,0.968c0,0.346,0.05,0.71,0.05,0.921c-0.05,0.067-0.261,0.067-0.322,0.009l-0.112-0.373
		c-0.05-0.173-0.136-0.316-0.384-0.364c-0.174-0.039-0.473-0.048-0.956-0.048h-0.72c-0.371,0-0.409,0.009-0.409,0.259v1.351
		c0,0.508,0.038,0.834,0.235,0.997c0.149,0.114,0.41,0.22,1.502,0.22c0.955,0,1.314-0.038,1.588-0.143
		c0.223-0.096,0.558-0.432,0.881-0.931c0.086-0.047,0.26-0.019,0.31,0.067c-0.087,0.336-0.397,1.073-0.558,1.332
		c-1.117-0.019-2.221-0.028-3.325-0.028h-1.116c-0.533,0-0.955,0.01-1.688,0.028c-0.075-0.028-0.1-0.182-0.025-0.239l0.41-0.029
		c0.707-0.048,0.77-0.191,0.77-1.197V34.569z"/>
	<path clip-path="url(#SVGID_6_)" fill="#FFFFFF" d="M201.229,39.61c-1.043,0-1.7-0.249-1.937-0.354
		c-0.147-0.211-0.31-0.892-0.335-1.342c0.062-0.067,0.249-0.087,0.299-0.028c0.186,0.488,0.694,1.427,2.133,1.427
		c1.043,0,1.551-0.526,1.551-1.102c0-0.421-0.111-0.892-1.017-1.342l-1.179-0.594c-0.62-0.316-1.34-0.862-1.34-1.648
		c0-0.91,0.918-1.647,2.531-1.647c0.385,0,0.83,0.057,1.153,0.124c0.16,0.039,0.335,0.058,0.435,0.058
		c0.111,0.229,0.223,0.767,0.223,1.169c-0.049,0.058-0.248,0.086-0.311,0.029c-0.16-0.461-0.496-1.084-1.687-1.084
		c-1.216,0-1.476,0.623-1.476,1.064c0,0.555,0.595,0.958,1.054,1.179l0.993,0.479c0.781,0.374,1.551,0.93,1.551,1.84
		C203.871,38.891,202.841,39.61,201.229,39.61"/>
</g>
</svg>
